<?xml version="1.0" standalone="no"?>
<!DOCTYPE svg PUBLIC "-//W3C//DTD SVG 20010904//EN"
 "http://www.w3.org/TR/2001/REC-SVG-20010904/DTD/svg10.dtd">
<svg version="1.0" xmlns="http://www.w3.org/2000/svg"
 width="516.000000pt" height="516.000000pt" viewBox="0 0 516.000000 516.000000"
 preserveAspectRatio="xMidYMid meet">
<metadata>
Created by potrace 1.14, written by Peter Selinger 2001-2017
</metadata>
<g transform="translate(0.000000,516.000000) scale(0.100000,-0.100000)"
fill="#000000" stroke="none">
<path d="M2448 4875 c-2 -3 -27 -8 -54 -11 -26 -3 -52 -8 -57 -11 -5 -3 -44
-14 -86 -24 -90 -22 -315 -95 -353 -116 -16 -8 -28 -12 -28 -9 0 5 -55 -17
-159 -66 -70 -32 -163 -114 -214 -188 -17 -25 -31 -47 -31 -50 0 -3 -11 -14
-23 -26 -12 -12 -20 -24 -16 -27 3 -4 -1 -15 -10 -24 -8 -10 -17 -25 -19 -33
-2 -8 -9 -21 -16 -29 -8 -8 -12 -21 -9 -30 2 -9 -2 -22 -10 -30 -10 -9 -11
-16 -4 -25 6 -7 8 -16 5 -19 -10 -10 -11 -50 -2 -69 6 -12 5 -18 -3 -18 -8 0
-8 -4 -1 -12 5 -7 6 -22 2 -33 -4 -11 -3 -28 2 -37 6 -12 5 -18 -3 -18 -8 0
-9 -4 0 -13 8 -10 7 -17 -1 -25 -7 -7 -8 -12 -2 -12 11 0 12 -35 1 -46 -3 -4
-3 -14 2 -23 11 -21 8 -53 -12 -121 -8 -30 -16 -90 -16 -133 0 -43 -2 -90 -6
-106 -3 -15 -2 -38 3 -52 15 -40 7 -44 -77 -41 -75 3 -80 2 -106 -25 -34 -35
-73 -116 -80 -168 -4 -22 -9 -49 -12 -59 -12 -44 -11 -154 3 -203 25 -86 115
-163 191 -163 20 0 56 9 80 21 37 18 45 19 63 6 11 -7 18 -16 15 -19 -3 -2 0
-20 6 -39 5 -19 12 -45 15 -59 17 -88 130 -320 187 -383 16 -18 36 -43 45 -57
9 -14 31 -43 49 -66 33 -41 34 -54 3 -54 -9 0 -45 -12 -80 -26 -35 -14 -103
-37 -150 -50 -47 -14 -98 -31 -115 -38 -73 -33 -125 -55 -192 -81 -40 -16 -73
-33 -73 -38 0 -6 -3 -8 -6 -5 -3 3 -35 -11 -72 -31 -37 -20 -121 -63 -187 -96
-66 -33 -122 -62 -125 -65 -3 -3 -22 -14 -42 -25 -21 -11 -38 -22 -38 -25 0
-4 -16 -12 -35 -20 -19 -8 -35 -18 -35 -24 0 -5 -3 -7 -6 -3 -3 3 -27 -10 -52
-30 -26 -19 -60 -44 -76 -56 -32 -24 -85 -66 -102 -82 -6 -5 -30 -26 -53 -45
-71 -58 -116 -100 -109 -100 4 0 -6 -13 -22 -29 -17 -15 -30 -33 -30 -39 0 -5
-7 -13 -16 -16 -9 -4 -14 -9 -11 -12 2 -3 -6 -17 -20 -32 -14 -15 -34 -44 -44
-64 -18 -35 -19 -66 -19 -558 l0 -520 2580 0 2580 0 0 1000 c0 550 -4 1000 -8
1000 -5 0 -9 13 -10 28 -2 77 -27 87 -261 97 -69 4 -129 9 -133 12 -5 2 -240
4 -523 4 -374 -1 -514 2 -517 10 -4 12 -81 13 -179 3 l-57 -6 -4 36 c-4 38 30
195 51 234 6 12 9 26 6 31 -3 5 0 11 5 13 6 2 13 16 16 32 3 16 10 39 17 50 6
12 12 23 12 26 1 3 9 22 18 44 9 21 17 42 17 45 0 4 9 25 20 48 23 48 30 77
37 163 3 36 7 66 8 68 1 1 22 -2 46 -7 24 -6 85 -11 135 -11 115 0 127 10 122
99 -1 34 1 61 6 61 5 0 4 6 -2 13 -6 7 -7 19 -3 26 8 12 6 22 -16 97 -6 17 -9
45 -9 62 1 18 -3 32 -7 32 -5 0 -7 8 -6 18 3 25 -15 64 -43 90 -18 16 -35 22
-66 20 -34 -1 -52 -10 -99 -50 l-58 -49 -3 27 c-3 20 5 33 30 55 18 15 29 28
24 29 -4 0 6 16 23 35 17 20 31 41 32 48 0 7 3 21 5 32 3 11 5 30 6 42 0 13 5
20 10 17 6 -4 7 0 1 12 -8 17 -10 39 -3 47 6 7 7 37 1 37 -4 0 -7 25 -6 55 0
30 -2 55 -5 55 -3 0 -6 8 -6 18 -1 9 -4 31 -8 47 -7 31 -10 47 -21 104 -4 18
-16 50 -27 70 -57 98 -80 148 -80 174 -1 15 -5 30 -10 33 -4 3 -8 14 -8 24 0
11 -13 46 -30 78 -16 33 -30 65 -30 71 0 6 -5 11 -11 11 -5 0 -8 4 -4 9 3 5 1
12 -5 16 -6 4 -8 10 -5 15 3 4 -2 11 -11 14 -8 3 -12 10 -9 16 3 5 1 10 -4 10
-6 0 -11 6 -11 13 0 16 -66 88 -74 80 -3 -4 -6 1 -6 10 0 10 -3 17 -7 17 -5 0
-25 16 -47 34 -60 53 -209 121 -321 147 -55 13 -455 19 -455 7 0 -12 -125 -9
-136 2 -6 6 -13 8 -16 5z"/>
</g>
</svg>
